<svg id="Choose_non_active" xmlns="http://www.w3.org/2000/svg" width="50" height="50" viewBox="0 0 50 50">
  <g id="Сгруппировать_2219" data-name="Сгруппировать 2219" transform="translate(0 0)">
    <rect id="Прямоугольник_1767" data-name="Прямоугольник 1767" width="50" height="50" transform="translate(0 0)" fill="#fff" opacity="0"/>
    <g id="Сгруппировать_2204" data-name="Сгруппировать 2204" transform="translate(2.874 15.906)">
      <circle id="Head" cx="3.926" cy="3.926" r="3.926" transform="translate(6.468 0.371)" fill="#b0bdc6"/>
      <path id="Body_1" d="M-5.229,0h1.375C-1.666,0,.916,1.774.916,3.962L-.3,11.806c0,2.188-1.37,3.962-3.558,3.962H-5.229c-2.188,0-3.558-1.774-3.558-3.962L-10,3.962C-10,1.774-7.417,0-5.229,0Z" transform="translate(14.925 8.733)" fill="#b0bdc6"/>
      <rect id="Leg_right_2" width="3.819" height="10.353" rx="1.909" transform="translate(6.462 21.608)" fill="#b0bdc6"/>
      <rect id="Leg_left_1" width="3.819" height="10.353" rx="1.909" transform="translate(10.486 21.608)" fill="#b0bdc6"/>
      <rect id="Hand_left_up_1" width="3.819" height="9.848" rx="1.909" transform="matrix(-0.485, -0.875, 0.875, -0.485, 1.851, 16.686)" fill="#b0bdc6"/>
      <rect id="Hand_right_down_1" width="3.819" height="7.907" rx="1.909" transform="translate(0.603 12.294)" fill="#b0bdc6"/>
      <g id="Cap_1" transform="translate(6.395 0)">
        <path id="Контур_890" data-name="Контур 890" d="M4.02,0A4.045,4.045,0,0,1,8.04,4.07a11.724,11.724,0,0,1-3.966.642A9.924,9.924,0,0,1,0,4.07,4.045,4.045,0,0,1,4.02,0Z" transform="translate(0 0)" fill="#b0bdc6"/>
        <path id="Контур_891" data-name="Контур 891" d="M4.02,1.5C6.24,1.5,8.04.918,8.04.2A35.371,35.371,0,0,0,4.074,0,29.716,29.716,0,0,0,0,.2C0,.918,1.8,1.5,4.02,1.5Z" transform="translate(0 3.846)" fill="#b0bdc6"/>
      </g>
      <rect id="Hand_left_up_1-2" data-name="Hand_left_up_1" width="3.819" height="9.848" rx="1.909" transform="matrix(0.485, -0.875, 0.875, 0.485, 10.281, 12.073)" fill="#b0bdc6"/>
      <rect id="Hand_right_down_1-2" data-name="Hand_right_down_1" width="3.819" height="7.907" rx="1.909" transform="translate(20.142 20.363) rotate(180)" fill="#b0bdc6"/>
    </g>
    <g id="Сгруппировать_2205" data-name="Сгруппировать 2205" transform="translate(26.371 15.906)">
      <circle id="Head-2" data-name="Head" cx="3.926" cy="3.926" r="3.926" transform="translate(6.468 0.371)" fill="#b0bdc6"/>
      <path id="Body_1-2" data-name="Body_1" d="M-5.229,0h1.375C-1.666,0,.916,1.774.916,3.962L-.3,11.806c0,2.188-1.37,3.962-3.558,3.962H-5.229c-2.188,0-3.558-1.774-3.558-3.962L-10,3.962C-10,1.774-7.417,0-5.229,0Z" transform="translate(14.925 8.733)" fill="#b0bdc6"/>
      <rect id="Leg_right_2-2" data-name="Leg_right_2" width="3.819" height="10.353" rx="1.909" transform="translate(6.462 21.608)" fill="#b0bdc6"/>
      <rect id="Leg_left_1-2" data-name="Leg_left_1" width="3.819" height="10.353" rx="1.909" transform="translate(10.486 21.608)" fill="#b0bdc6"/>
      <rect id="Hand_left_up_1-3" data-name="Hand_left_up_1" width="3.819" height="9.848" rx="1.909" transform="matrix(-0.485, -0.875, 0.875, -0.485, 1.851, 16.686)" fill="#b0bdc6"/>
      <rect id="Hand_right_down_1-3" data-name="Hand_right_down_1" width="3.819" height="7.907" rx="1.909" transform="translate(0.603 12.294)" fill="#b0bdc6"/>
      <g id="Cap_1-2" data-name="Cap_1" transform="translate(6.401 0)">
        <path id="Контур_890-2" data-name="Контур 890" d="M4.02,0A4.045,4.045,0,0,1,8.04,4.07a11.724,11.724,0,0,1-3.966.642A9.924,9.924,0,0,1,0,4.07,4.045,4.045,0,0,1,4.02,0Z" transform="translate(0 0)" fill="#b0bdc6"/>
        <path id="Контур_891-2" data-name="Контур 891" d="M4.02,1.5C6.24,1.5,8.04.918,8.04.2A35.371,35.371,0,0,0,4.074,0,29.716,29.716,0,0,0,0,.2C0,.918,1.8,1.5,4.02,1.5Z" transform="translate(0 3.846)" fill="#b0bdc6"/>
      </g>
      <rect id="Hand_left_up_1-4" data-name="Hand_left_up_1" width="3.819" height="9.848" rx="1.909" transform="matrix(0.485, -0.875, 0.875, 0.485, 10.281, 12.073)" fill="#b0bdc6"/>
      <rect id="Hand_right_down_1-4" data-name="Hand_right_down_1" width="3.819" height="7.907" rx="1.909" transform="translate(20.142 20.363) rotate(180)" fill="#b0bdc6"/>
    </g>
  </g>
  <path id="Объединение_95" data-name="Объединение 95" d="M3.036,9.4.088,5.863a.375.375,0,0,1,.288-.615h1.08q-.006-.062-.006-.125V1.374A1.374,1.374,0,0,1,2.824,0h1A1.374,1.374,0,0,1,5.2,1.374V5.123q0,.063-.006.125h1.08a.375.375,0,0,1,.288.615L4.875,7.884,3.612,9.4a.375.375,0,0,1-.576,0Z" transform="translate(9.996 2.146)" fill="#b0bdc6"/>
</svg>
