<svg id="Run_non_active" xmlns="http://www.w3.org/2000/svg" width="50" height="50" viewBox="0 0 50 50">
  <rect id="Прямоугольник_1754" data-name="Прямоугольник 1754" width="50" height="50" fill="#fff" opacity="0"/>
  <g id="Сгруппировать_2202" data-name="Сгруппировать 2202" transform="translate(6.792 4.641)">
    <g id="Box" transform="translate(0.983 3.598)">
      <path id="Контур_899" data-name="Контур 899" d="M1.663,0H12.1a1.663,1.663,0,0,1,1.663,1.663V12.1A1.663,1.663,0,0,1,12.1,13.762H1.663A1.663,1.663,0,0,1,0,12.1V1.663A1.663,1.663,0,0,1,1.663,0Z" transform="translate(5.816 0) rotate(25)" fill="#b0bdc6"/>
      <g id="Сгруппировать_2200" data-name="Сгруппировать 2200" transform="translate(4.626 4.626)">
        <circle id="Эллипс_1" data-name="Эллипс 1" cx="1.345" cy="1.345" r="1.345" transform="translate(2.931 5.559) rotate(-77.716)" fill="#b0bdc6"/>
        <path id="Контур_1" data-name="Контур 1" d="M-119.28,312.544a4.531,4.531,0,0,0-4.531,4.531,4.531,4.531,0,0,0,4.531,4.531,4.531,4.531,0,0,0,4.531-4.531A4.531,4.531,0,0,0-119.28,312.544Zm0,7.9a3.369,3.369,0,0,1-3.369-3.369,3.369,3.369,0,0,1,3.369-3.369,3.369,3.369,0,0,1,3.369,3.369A3.369,3.369,0,0,1-119.28,320.444Z" transform="translate(123.811 -312.544)" fill="#b0bdc6"/>
      </g>
    </g>
    <path id="Объединение_94" data-name="Объединение 94" d="M21.152,30.884A2.427,2.427,0,0,1,19.866,27.7l2.374-5.593-3.753-3.5a4.581,4.581,0,0,1-2.41-.142l-3.9,4.819a2.421,2.421,0,0,1-1.907.9,2.435,2.435,0,0,1-.474.038l-7.409-.13A2.427,2.427,0,0,1,2.47,19.24l6.64.116,3.855-4.76a4.582,4.582,0,0,1,.406-2.441l3.214-6.892-2.857.3L10.587,9.886A2.427,2.427,0,0,1,6.659,7.033L10.028,2.4a2.416,2.416,0,0,1,1.2-.877,2.416,2.416,0,0,1,1.5-.732L20.09.014a2.417,2.417,0,0,1,1.532.35,4.612,4.612,0,0,1,3.915,1.9,2.421,2.421,0,0,1,1.447,1.348L29.592,9.76l4.609.4A2.428,2.428,0,0,1,33.778,15l-5.709-.5A2.424,2.424,0,0,1,26.2,13.338a2.416,2.416,0,0,1-.794-1.006l-.935-2.2L22.063,15.3l4.72,4.4a2.427,2.427,0,0,1,.541,2.809,2.453,2.453,0,0,1-.094.262l-2.9,6.821a2.425,2.425,0,0,1-3.182,1.285Z" transform="translate(0 9.641)" fill="#b0bdc6"/>
    <g id="Cap" transform="translate(5.681 4.166)">
      <path id="Контур_888" data-name="Контур 888" d="M5121.77,183.168a2.076,2.076,0,0,1,1.621-1.744c2.107-.207,10.443,4.351,10.284,4.545-.112.137-5.907-3.117-9.4-3.982C5122.871,181.639,5121.794,183.124,5121.77,183.168Z" transform="translate(-5121.757 -181.418)" fill="#b0bdc6"/>
      <path id="Контур_889" data-name="Контур 889" d="M1.291,0C2,0,2.583.256,2.583.572,1.5.575.529.58,0,.572,0,.256.578,0,1.291,0Z" transform="translate(6.552 1.031) rotate(25)" fill="#b0bdc6"/>
    </g>
    <g id="Head" transform="translate(21.191 0)">
      <circle id="Эллипс_144" data-name="Эллипс 144" cx="5.14" cy="5.14" r="5.14" transform="translate(0 0.103)" fill="#b0bdc6"/>
      <path id="Объединение_93" data-name="Объединение 93" d="M0,5.174A5.142,5.142,0,0,1,5.11,0a5.131,5.131,0,0,1,5.045,4.343h3.259a.511.511,0,0,1,.511.511.384.384,0,0,1-.383.383H10.047a15.186,15.186,0,0,1-4.869.752H5.01A12.364,12.364,0,0,1,0,5.174Z" transform="translate(0.049 0)" fill="#b0bdc6"/>
    </g>
  </g>
</svg>
